<svg width="19" height="23" viewBox="0 0 19 23" fill="none" xmlns="http://www.w3.org/2000/svg">
<path d="M15.675 4.35H13.575C13.5375 1.9125 11.5875 0 9.15 0C6.7125 0 4.7625 1.95 4.725 4.35H2.625C1.1625 4.35 0 5.55 0 6.975V17.625C0 20.4 2.25 22.65 5.025 22.65H13.275C16.05 22.65 18.3 20.4 18.3 17.625V6.975C18.3 5.5125 17.1375 4.35 15.675 4.35ZM9.15 1.65C10.65 1.65 11.85 2.85 11.8875 4.3125H6.4125C6.45 2.85 7.65 1.65 9.15 1.65ZM2.625 6.0375H4.6875V7.425C4.6875 7.875 5.0625 8.25 5.5125 8.25C5.9625 8.25 6.3375 7.875 6.3375 7.425V6.0375H11.85V7.425C11.85 7.875 12.225 8.25 12.675 8.25C13.125 8.25 13.5 7.875 13.5 7.425V6.0375H15.5625C16.0875 6.0375 16.5 6.45 16.5 6.975V17.0625H1.6875V6.975C1.6875 6.45 2.1 6.0375 2.625 6.0375ZM13.275 21H5.025C3.5625 21 2.325 20.0625 1.875 18.7875H16.425C15.975 20.0625 14.7375 21 13.275 21Z" fill="#111928"/>
</svg>
