<svg width="9" height="9" viewBox="0 0 9 9" fill="none" xmlns="http://www.w3.org/2000/svg">
<path d="M4.91797 4.41797L8.73047 0.605469C8.87109 0.464844 8.87109 0.246094 8.73047 0.105469C8.58984 -0.0351563 8.37109 -0.0351563 8.23047 0.105469L4.41797 3.91797L0.605469 0.105469C0.464844 -0.0351563 0.246094 -0.0351563 0.105469 0.105469C-0.0351563 0.246094 -0.0351563 0.464844 0.105469 0.605469L3.91797 4.41797L0.105469 8.23047C-0.0351563 8.37109 -0.0351563 8.58984 0.105469 8.73047C0.167969 8.79297 0.261719 8.83984 0.355469 8.83984C0.449219 8.83984 0.542969 8.80859 0.605469 8.73047L4.41797 4.91797L8.23047 8.73047C8.29297 8.79297 8.38672 8.83984 8.48047 8.83984C8.57422 8.83984 8.66797 8.80859 8.73047 8.73047C8.87109 8.58984 8.87109 8.37109 8.73047 8.23047L4.91797 4.41797Z" fill="#111928"/>
</svg>
